# xmcd
#
# Track frame offsets:
#	150
#	19013
#	39271
#	50877
#	69014
#	84042
#	97542
#	111173
#	125896
#	144288
#	158274
#	172508
#	186315
#	203306
#	215055
#
# Disc length: 3056 seconds
#
# Revision: 0
# Processed by: cddbd v1.4PL0 Copyright (c) Steve Scherf et al.
# Submitted via: dBpowerAMP V4.0
#
DISCID=ae0bee0f
DTITLE=Yoshio - Sentimientos de México
DYEAR=2002
DGENRE=Country
TTITLE0=Por mujeres como tú
TTITLE1=Lástima que seas ajena
TTITLE2=Esta tristeza mía
TTITLE3=Nube viajera
TTITLE4=Qué bueno
TTITLE5=Nos estorbó la ropa
TTITLE6=Payaso
TTITLE7=Recuérdame bonito
TTITLE8=Compréndala
TTITLE9=Que sepan todos
TTITLE10=Sombras
TTITLE11=Necesito olvidarla
TTITLE12=Nadie simplemente nadie
TTITLE13=Hermoso cariño
TTITLE14=Julia
EXTD=
EXTT0=
EXTT1=
EXTT2=
EXTT3=
EXTT4=
EXTT5=
EXTT6=
EXTT7=
EXTT8=
EXTT9=
EXTT10=
EXTT11=
EXTT12=
EXTT13=
EXTT14=
PLAYORDER=
